<svg width="119" height="26" viewBox="0 0 119 26" fill="none" xmlns="http://www.w3.org/2000/svg">
<g filter="url(#filter0_d_126_2)">
<path d="M7.80159 18.1507C6.69669 18.1507 5.70658 17.9713 4.83127 17.6126C3.95596 17.2538 3.25285 16.7229 2.72192 16.0198C2.20534 15.3167 1.93271 14.4701 1.90401 13.48H5.82138C5.87878 14.0396 6.07249 14.4701 6.40253 14.7714C6.73256 15.0584 7.16304 15.2019 7.69397 15.2019C8.23924 15.2019 8.66972 15.0799 8.98541 14.836C9.30109 14.5777 9.45894 14.2261 9.45894 13.7813C9.45894 13.4082 9.32979 13.0997 9.07151 12.8558C8.82757 12.6118 8.51906 12.4109 8.14597 12.2531C7.78724 12.0952 7.27066 11.9159 6.59624 11.715C5.62049 11.4137 4.8241 11.1123 4.20708 10.811C3.59006 10.5096 3.05913 10.0648 2.6143 9.47649C2.16947 8.88817 1.94706 8.12048 1.94706 7.17342C1.94706 5.76719 2.45646 4.66946 3.47526 3.88025C4.49406 3.07668 5.82138 2.6749 7.4572 2.6749C9.12173 2.6749 10.4634 3.07668 11.4822 3.88025C12.501 4.66946 13.0463 5.77436 13.118 7.19494H9.13608C9.10738 6.70707 8.92801 6.32681 8.59798 6.05417C8.26794 5.76718 7.84464 5.62369 7.32806 5.62369C6.88323 5.62369 6.5245 5.74566 6.25186 5.9896C5.97922 6.21919 5.8429 6.5564 5.8429 7.00123C5.8429 7.48911 6.07249 7.86936 6.53167 8.142C6.99085 8.41464 7.70832 8.7088 8.68407 9.02449C9.65983 9.35452 10.449 9.67021 11.0517 9.97154C11.6687 10.2729 12.1997 10.7105 12.6445 11.2845C13.0893 11.8585 13.3117 12.5975 13.3117 13.5015C13.3117 14.3624 13.0893 15.1445 12.6445 15.8476C12.214 16.5507 11.5826 17.1103 10.7504 17.5265C9.91812 17.9426 8.93519 18.1507 7.80159 18.1507ZM30.9019 5.86046C32.3942 5.86046 33.5781 6.31246 34.4534 7.21647C35.343 8.12048 35.7879 9.37604 35.7879 10.9832V18H32.1288V11.4782C32.1288 10.7034 31.9207 10.1079 31.5046 9.69173C31.1028 9.26125 30.5432 9.04601 29.8257 9.04601C29.1082 9.04601 28.5414 9.26125 28.1253 9.69173C27.7235 10.1079 27.5226 10.7034 27.5226 11.4782V18H23.8635V11.4782C23.8635 10.7034 23.6555 10.1079 23.2394 9.69173C22.8376 9.26125 22.2779 9.04601 21.5605 9.04601C20.843 9.04601 20.2762 9.26125 19.8601 9.69173C19.4583 10.1079 19.2574 10.7034 19.2574 11.4782V18H15.5768V5.9896H19.2574V7.49628C19.6305 6.99405 20.1184 6.59945 20.721 6.31246C21.3237 6.01112 22.0053 5.86046 22.7658 5.86046C23.6698 5.86046 24.4734 6.05417 25.1765 6.4416C25.894 6.82904 26.4536 7.38149 26.8554 8.09895C27.2715 7.43888 27.8383 6.90078 28.5558 6.48465C29.2733 6.06852 30.0553 5.86046 30.9019 5.86046Z" fill="#323232"/>
</g>
<g filter="url(#filter1_d_126_2)">
<path d="M53.215 7.99133C53.6455 7.33126 54.1836 6.81469 54.8293 6.4416C55.4751 6.05417 56.1925 5.86046 56.9817 5.86046V9.7563H55.9701C55.0518 9.7563 54.363 9.95719 53.9038 10.359C53.4446 10.7464 53.215 11.4352 53.215 12.4253V18H49.5344V5.9896H53.215V7.99133ZM65.435 14.879V18H63.5624C62.2279 18 61.1876 17.6771 60.4414 17.0314C59.6952 16.3713 59.3221 15.3023 59.3221 13.8243V9.04601H57.8585V5.9896H59.3221V3.06233H63.0028V5.9896H65.4134V9.04601H63.0028V13.8674C63.0028 14.2261 63.0889 14.4844 63.261 14.6423C63.4332 14.8001 63.7202 14.879 64.122 14.879H65.435ZM66.8609 10.4235C66.8609 8.93122 67.1838 7.6039 67.8295 6.4416C68.4752 5.26496 69.3721 4.35377 70.52 3.70805C71.6823 3.04798 72.9953 2.71795 74.4589 2.71795C76.2526 2.71795 77.788 3.19148 79.0651 4.13853C80.3421 5.08559 81.1959 6.37703 81.6264 8.01286H77.5799C77.2786 7.38149 76.8481 6.90078 76.2885 6.57075C75.7432 6.24071 75.119 6.0757 74.4159 6.0757C73.2823 6.0757 72.3639 6.4703 71.6608 7.25952C70.9577 8.04873 70.6061 9.10341 70.6061 10.4235C70.6061 11.7437 70.9577 12.7984 71.6608 13.5876C72.3639 14.3768 73.2823 14.7714 74.4159 14.7714C75.119 14.7714 75.7432 14.6064 76.2885 14.2763C76.8481 13.9463 77.2786 13.4656 77.5799 12.8342H81.6264C81.1959 14.4701 80.3421 15.7615 79.0651 16.7086C77.788 17.6413 76.2526 18.1076 74.4589 18.1076C72.9953 18.1076 71.6823 17.7848 70.52 17.139C69.3721 16.479 68.4752 15.5678 67.8295 14.4055C67.1838 13.2432 66.8609 11.9159 66.8609 10.4235ZM85.7314 4.74121C85.0857 4.74121 84.5548 4.55467 84.1387 4.18158C83.7369 3.79415 83.536 3.32062 83.536 2.761C83.536 2.18702 83.7369 1.7135 84.1387 1.34041C84.5548 0.95298 85.0857 0.759264 85.7314 0.759264C86.3628 0.759264 86.8794 0.95298 87.2812 1.34041C87.6973 1.7135 87.9054 2.18702 87.9054 2.761C87.9054 3.32062 87.6973 3.79415 87.2812 4.18158C86.8794 4.55467 86.3628 4.74121 85.7314 4.74121ZM87.561 5.9896V18H83.8804V5.9896H87.561ZM96.9222 14.879V18H95.0497C93.7152 18 92.6748 17.6771 91.9287 17.0314C91.1825 16.3713 90.8094 15.3023 90.8094 13.8243V9.04601H89.3458V5.9896H90.8094V3.06233H94.49V5.9896H96.9007V9.04601H94.49V13.8674C94.49 14.2261 94.5761 14.4844 94.7483 14.6423C94.9205 14.8001 95.2075 14.879 95.6093 14.879H96.9222ZM111.241 5.9896L103.708 23.7039H99.7473L102.502 17.591L97.6164 5.9896H101.727L104.504 13.5015L107.259 5.9896H111.241Z" fill="#323232"/>
</g>
<path d="M43.7976 16.776L45.4783 13.9069L46.9396 11.4131C47.1533 11.12 47.3367 10.8081 47.4926 10.4803C47.6471 10.1511 47.7728 9.8118 47.8652 9.46092C47.959 9.11003 48.0197 8.75338 48.0471 8.39094C48.0746 8.02851 48.0688 7.66752 48.0312 7.30509C47.9923 6.9441 47.9215 6.59033 47.8175 6.24234C47.7136 5.8929 47.5793 5.55791 47.4132 5.23446C47.2486 4.91101 47.0551 4.60489 46.8342 4.31755C46.6118 4.02876 46.3664 3.76451 46.0963 3.52048C45.8263 3.2779 45.5361 3.06131 45.2271 2.87215C44.9166 2.68299 44.5917 2.52271 44.2539 2.39276C43.9145 2.2628 43.5665 2.16461 43.2084 2.09819C42.8518 2.03321 42.4922 2 42.1284 2C41.7659 2 41.4049 2.03321 41.0483 2.09819C40.6916 2.16461 40.3436 2.2628 40.0043 2.39276C39.665 2.52271 39.3401 2.68299 39.0311 2.87215C38.7206 3.06131 38.4318 3.2779 38.1604 3.52048C37.8903 3.76451 37.6449 4.02876 37.4239 4.31755C37.203 4.60489 37.0095 4.91101 36.8435 5.23446C36.6789 5.55791 36.5446 5.8929 36.4406 6.24234C36.3367 6.59033 36.2659 6.9441 36.2269 7.30509C36.1879 7.66752 36.1821 8.02851 36.211 8.39094C36.2385 8.75338 36.2991 9.11003 36.3915 9.46092C36.4854 9.8118 36.6096 10.1511 36.7655 10.4803C36.92 10.8081 37.1048 11.12 37.3171 11.4131L38.5214 13.4664L40.4664 16.776C40.5082 16.8482 40.5544 16.9175 40.6064 16.9839C40.6584 17.0503 40.7133 17.1139 40.7725 17.1731C40.8317 17.2323 40.8952 17.2872 40.9616 17.3377C41.0281 17.3882 41.0988 17.4344 41.171 17.4763C41.2432 17.5182 41.3197 17.5557 41.3963 17.5875C41.4742 17.6193 41.5537 17.6467 41.6345 17.6684C41.7154 17.6886 41.7977 17.7059 41.8814 17.716C41.9637 17.7276 42.0475 17.7333 42.1312 17.7333C42.215 17.7333 42.2987 17.7276 42.3825 17.716C42.4648 17.7059 42.5471 17.6886 42.628 17.6684C42.7088 17.6467 42.7882 17.6193 42.8662 17.5875C42.9442 17.5557 43.0193 17.5182 43.0915 17.4763C43.1651 17.4344 43.2344 17.3882 43.3008 17.3377C43.3673 17.2872 43.4308 17.2323 43.49 17.1731C43.5492 17.1139 43.6055 17.0503 43.6561 16.9839C43.708 16.9175 43.7542 16.8482 43.7976 16.776ZM39.5422 7.93899C39.5422 7.7686 39.5596 7.59966 39.5928 7.4336C39.626 7.2661 39.6751 7.10438 39.7401 6.94699C39.805 6.7896 39.8844 6.64087 39.9783 6.49936C40.0736 6.35786 40.1805 6.2279 40.3003 6.10661C40.4216 5.98676 40.5516 5.87991 40.6931 5.78461C40.8346 5.69075 40.9847 5.60989 41.1407 5.54491C41.2981 5.47993 41.4598 5.43084 41.6273 5.39763C41.7934 5.36442 41.9623 5.34853 42.1327 5.34853C42.3031 5.34853 42.4706 5.36442 42.6381 5.39763C42.8041 5.43084 42.9658 5.47993 43.1232 5.54491C43.2806 5.60989 43.4294 5.69075 43.5709 5.78461C43.7124 5.87991 43.8438 5.98676 43.9636 6.10661C44.0835 6.2279 44.1918 6.35786 44.2856 6.49936C44.3809 6.64087 44.4603 6.7896 44.5253 6.94699C44.5903 7.10438 44.6394 7.2661 44.6726 7.4336C44.7058 7.59966 44.7217 7.7686 44.7217 7.93899C44.7217 8.10937 44.7058 8.27687 44.6726 8.44437C44.6394 8.61187 44.5903 8.77359 44.5253 8.93098C44.4603 9.08693 44.3809 9.2371 44.2856 9.37861C44.1918 9.52012 44.0835 9.65007 43.9636 9.77137C43.8438 9.89121 43.7124 9.99807 43.5709 10.0934C43.4294 10.1872 43.2806 10.2681 43.1232 10.3331C42.9658 10.398 42.8041 10.4471 42.6381 10.4803C42.4706 10.5136 42.3031 10.5294 42.1327 10.5294C41.9623 10.5294 41.7934 10.5136 41.6273 10.4803C41.4598 10.4471 41.2981 10.398 41.1407 10.3331C40.9833 10.2681 40.8346 10.1887 40.6931 10.0934C40.5516 9.99951 40.4202 9.89121 40.3003 9.77137C40.1805 9.65152 40.0722 9.52012 39.9783 9.37861C39.8844 9.2371 39.8036 9.08837 39.7386 8.93098C39.6736 8.77359 39.6245 8.61187 39.5913 8.44437C39.5581 8.27687 39.5422 8.10937 39.5422 7.93899Z" fill="#3083E6"/>
<defs>
<filter id="filter0_d_126_2" x="0.506554" y="1.97618" width="36.6788" height="18.2708" filterUnits="userSpaceOnUse" color-interpolation-filters="sRGB">
<feFlood flood-opacity="0" result="BackgroundImageFix"/>
<feColorMatrix in="SourceAlpha" type="matrix" values="0 0 0 0 0 0 0 0 0 0 0 0 0 0 0 0 0 0 127 0" result="hardAlpha"/>
<feOffset dy="0.698749"/>
<feGaussianBlur stdDeviation="0.698749"/>
<feComposite in2="hardAlpha" operator="out"/>
<feColorMatrix type="matrix" values="0 0 0 0 0 0 0 0 0 0 0 0 0 0 0 0 0 0 0.05 0"/>
<feBlend mode="normal" in2="BackgroundImageFix" result="effect1_dropShadow_126_2"/>
<feBlend mode="normal" in="SourceGraphic" in2="effect1_dropShadow_126_2" result="shape"/>
</filter>
<filter id="filter1_d_126_2" x="48.1369" y="0.0605279" width="64.5018" height="25.7396" filterUnits="userSpaceOnUse" color-interpolation-filters="sRGB">
<feFlood flood-opacity="0" result="BackgroundImageFix"/>
<feColorMatrix in="SourceAlpha" type="matrix" values="0 0 0 0 0 0 0 0 0 0 0 0 0 0 0 0 0 0 127 0" result="hardAlpha"/>
<feOffset dy="0.698749"/>
<feGaussianBlur stdDeviation="0.698749"/>
<feComposite in2="hardAlpha" operator="out"/>
<feColorMatrix type="matrix" values="0 0 0 0 0 0 0 0 0 0 0 0 0 0 0 0 0 0 0.05 0"/>
<feBlend mode="normal" in2="BackgroundImageFix" result="effect1_dropShadow_126_2"/>
<feBlend mode="normal" in="SourceGraphic" in2="effect1_dropShadow_126_2" result="shape"/>
</filter>
</defs>
</svg>
